HIERARCHY
ROOT Hips
{
	OFFSET 0.00000 0.00000 0.00000
	CHANNELS 6 Xposition Yposition Zposition Yrotation Zrotation Xrotation 
	JOINT Lumbar
	{
		OFFSET 0 0 0
		CHANNELS 3 Zrotation Xrotation Yrotation
		JOINT Neck
		{
			OFFSET 0.00 0.2701 0.00
			CHANNELS 3 Zrotation Xrotation Yrotation
			End Site
			{
				OFFSET 0.00 0.1379 0.00
			}
		}
		JOINT RightShoulder
		{
			OFFSET 0.0119 0.2289 0.1181
			CHANNELS 3 Zrotation Xrotation Yrotation
			JOINT RightElbow
			{
				OFFSET 0.00 -0.1475 0.00
				CHANNELS 2 Zrotation Yrotation
				JOINT RightWrist
				{
					OFFSET 0.00 -0.1605 0.00
					CHANNELS 2 Zrotation Xrotation
					End Site
					{
						OFFSET 0.0040 -0.1068 0.0006
					}
				}
			}
		}
		JOINT LeftShoulder
		{
			OFFSET 0.0119 0.2289 -0.1181
			CHANNELS 3 Zrotation Xrotation Yrotation
			JOINT LeftElbow
			{
				OFFSET 0.00 -0.1475 0.00
				CHANNELS 2 Zrotation Yrotation
				JOINT LeftWrist
				{
					OFFSET 0.00 -0.1605 0.00
					CHANNELS 2 Zrotation Xrotation
					End Site
					{
						OFFSET 0.0040 -0.1068 -0.0006
					}
				}
			}
		}
	}
	JOINT RightHip
	{
		OFFSET 0.0316 -0.0424 0.0458
		CHANNELS 3 Zrotation Xrotation Yrotation
		JOINT RightKnee
		{
			OFFSET 0.00 -0.2438 0.00
			CHANNELS 1 Zrotation
			JOINT RightAnkle
			{
				OFFSET 0.00 -0.2449 0.00
				CHANNELS 3 Zrotation Xrotation Yrotation
				End Site
				{
					OFFSET 0.1237 -0.0542 0.0051
				}
			}
		}
	}
	JOINT LeftHip
	{
		OFFSET 0.0316 -0.0424 -0.0458
		CHANNELS 3 Zrotation Xrotation Yrotation
		JOINT LeftKnee
		{
			OFFSET 0.00 -0.2438 0.00
			CHANNELS 1 Zrotation
			JOINT LeftAnkle
			{
				OFFSET 0.00 -0.2449 0.00
				CHANNELS 3 Zrotation Xrotation Yrotation
				End Site
				{
					OFFSET 0.1237 -0.0542 -0.0051
				}
			}
		}
	}
}
MOTION
Frames: 33
Frame Time: 0.02
-0.00137 -4e-05 -0.00017 -177.27757 -29.82019 1.23947 46.01303 -2.20167 -9.20989 -15.3181 8.8664 -0.55459 -21.52343 -6.03723 -1.57498 30.51721 98.91947 9.54935 1.29854 -23.25923 1.85402 16.82841 32.10796 -168.21043 36.15496 -11.61104 26.77574 -1.94679 -1.93657 -20.08092 -6.29508 -4.44505 -2.98216 30.47938 3.90585 -0.81007 -24.30472 -6.29408 3.50015 2.44246
-0.00118 -2e-05 7e-05 -177.23973 -29.89429 1.24907 45.96145 -2.1794 -9.22799 -15.20425 8.86141 -0.55482 -21.46372 -6.05374 -1.52349 30.45246 98.87655 9.54781 1.29752 -23.19234 2.42805 14.91774 32.14751 -162.32715 34.29658 -10.60005 26.86443 -2.02569 -2.2323 -20.07814 -6.2826 -4.42677 -2.96556 30.57812 3.94957 -0.48451 -24.30912 -6.2898 3.45418 2.4185
-0.001 1e-05 0.00031 -177.20196 -29.96828 1.25868 45.90996 -2.15713 -9.246 -15.09052 8.85625 -0.55504 -21.40425 -6.07024 -1.47208 30.38801 98.83376 9.54626 1.29649 -23.12567 2.99994 13.01413 32.18699 -156.4674 32.44562 -9.593 26.953 -2.10444 -2.52733 -20.07537 -6.27015 -4.40849 -2.94898 30.67672 3.99304 -0.16033 -24.31351 -6.28554 3.40839 2.39462
-0.00081 4e-05 0.00055 -177.16424 -30.04217 1.26826 45.85853 -2.13492 -9.26404 -14.97699 8.85125 -0.55527 -21.34473 -6.0867 -1.42072 30.32347 98.79098 9.54472 1.29548 -23.059 3.57211 11.10964 32.22643 -150.60354 30.59339 -8.58532 27.04143 -2.18312 -2.82221 -20.0726 -6.25771 -4.39026 -2.93242 30.77518 4.03661 0.16414 -24.3179 -6.28127 3.36258 2.37073
-0.00062 7e-05 0.00079 -177.12645 -30.11613 1.27781 45.80703 -2.11272 -9.28217 -14.86339 8.84648 -0.5555 -21.28497 -6.10317 -1.36932 30.25859 98.74803 9.54321 1.29448 -22.99211 4.14665 9.19736 32.26589 -144.71299 28.73271 -7.57322 27.12994 -2.2619 -3.11762 -20.06983 -6.24526 -4.37204 -2.91583 30.87373 4.08049 0.49021 -24.32231 -6.27698 3.31655 2.34674
-0.00043 9e-05 0.00103 -177.0887 -30.1902 1.28755 45.75555 -2.09031 -9.29994 -14.74939 8.84048 -0.55572 -21.22611 -6.11974 -1.31791 30.19506 98.70556 9.54156 1.29337 -22.92589 4.71299 7.31191 32.30543 -138.9176 26.90206 -6.57674 27.21862 -2.34057 -3.4118 -20.06705 -6.23282 -4.35366 -2.89929 30.97243 4.12309 0.81042 -24.32666 -6.27279 3.27125 2.32312
-0.00024 0.00012 0.00127 -177.05096 -30.26395 1.29688 45.70411 -2.06837 -9.31841 -14.6364 8.83702 -0.55595 -21.16549 -6.13608 -1.26653 30.12886 98.66225 9.54022 1.29249 -22.8584 5.29493 5.37543 32.34478 -132.94061 25.01416 -5.55046 27.30685 -2.41941 -3.70831 -20.06429 -6.22036 -4.33559 -2.88267 31.07068 4.1682 1.14188 -24.33112 -6.2684 3.22457 2.29879
-5e-05 0.00015 0.00151 -177.01311 -30.33801 1.30662 45.65261 -2.04596 -9.33623 -14.52234 8.83108 -0.55618 -21.10653 -6.15263 -1.21523 30.06514 98.61958 9.53855 1.2914 -22.79207 5.86297 3.48442 32.3843 -127.1247 23.17694 -4.5507 27.39552 -2.49805 -4.00234 -20.06151 -6.20794 -4.31729 -2.86614 31.1694 4.21105 1.4633 -24.33548 -6.26419 3.17911 2.27508
0.00013 0.00018 0.00175 -176.97552 -30.41245 1.31678 45.60107 -2.02311 -9.3533 -14.40742 8.82264 -0.55641 -21.04943 -6.16946 -1.16355 30.00439 98.5782 9.53664 1.29006 -22.72721 6.41226 1.6547 32.42404 -121.52954 21.40963 -3.58688 27.48469 -2.57668 -4.29483 -20.05872 -6.19547 -4.29846 -2.84961 31.26858 4.25092 1.7712 -24.33974 -6.26023 3.13536 2.25225
0.00032 0.0002 0.002 -176.93763 -30.4847 1.32425 45.54988 -2.00317 -9.37481 -14.2988 8.83018 -0.55662 -20.98111 -6.18473 -1.1126 29.92639 98.53094 9.53657 1.29019 -22.65403 7.06415 -0.51052 32.46256 -114.7359 19.26395 -2.42683 27.57087 -2.65605 -4.60066 -20.05604 -6.18298 -4.28196 -2.83276 31.36477 4.30724 2.15311 -24.3446 -6.25489 3.08242 2.22471
0.00051 0.00023 0.00222 -176.8996 -30.56157 1.33758 45.49786 -1.97686 -9.38688 -14.17606 8.80299 -0.55687 -20.9368 -6.20327 -1.06107 29.88487 98.49509 9.53236 1.28719 -22.59834 7.50297 -1.97881 32.50362 -110.42492 17.90125 -1.67404 27.6634 -2.7334 -4.87544 -20.05311 -6.17076 -4.26101 -2.81682 31.46744 4.32932 2.3813 -24.34817 -6.25244 3.04846 2.20691
0.00072 0.00028 0.0024 -176.86728 -30.65103 1.36548 45.44466 -1.93466 -9.37326 -14.02135 8.68795 -0.5572 -20.95634 -6.23144 -0.99948 29.94358 98.49907 9.51902 1.27558 -22.59209 7.32349 -1.42499 32.55377 -113.38004 18.83724 -2.10664 27.7731 -2.80892 -5.08889 -20.0495 -6.15728 -4.22387 -2.80143 31.58684 4.25261 2.16294 -24.34849 -6.25821 3.07049 2.21774
0.00094 0.00034 0.00256 -176.83354 -30.74506 1.39951 45.39058 -1.88579 -9.34997 -13.85147 8.53676 -0.55757 -21.00036 -6.26297 -0.93857 30.03883 98.51302 9.50121 1.26082 -22.60355 6.93637 -0.19068 32.60724 -118.75015 20.5337 -2.93649 27.88911 -2.88174 -5.26727 -20.04564 -6.14442 -4.18295 -2.78731 31.71288 4.14235 1.79434 -24.34745 -6.26684 3.11092 2.23802
0.00116 0.00039 0.00272 -176.79666 -30.83715 1.4317 45.33597 -1.83888 -9.33121 -13.68377 8.39706 -0.55793 -21.03458 -6.2923 -0.88323 30.11735 98.51672 9.48389 1.24753 -22.60544 6.66607 0.65933 32.65629 -122.71122 21.78146 -3.53915 28.00255 -2.95332 -5.44541 -20.04188 -6.13261 -4.14644 -2.77393 31.83665 4.05067 1.51122 -24.34683 -6.27395 3.1403 2.25268
0.00137 0.00044 0.00289 -176.77636 -30.92899 1.45995 45.28459 -1.79635 -9.31256 -13.53487 8.27763 -0.55826 -21.0634 -6.32371 -0.80427 30.1967 98.54421 9.47269 1.2341 -22.61207 6.30013 1.82341 32.71278 -127.96729 23.45744 -4.33598 28.11522 -3.03516 -5.68957 -20.03818 -6.11527 -4.09876 -2.75511 31.95753 3.94508 1.15705 -24.34704 -6.28193 3.18084 2.27286
0.0016 0.00049 0.00304 -176.72045 -31.02202 1.4978 45.22713 -1.74329 -9.2905 -13.34456 8.10805 -0.55865 -21.10908 -6.35252 -0.77319 30.28269 98.52499 9.44817 1.22019 -22.61516 6.08468 2.4998 32.76063 -131.12996 24.4325 -4.82707 28.23041 -3.09517 -5.79069 -20.03432 -6.10946 -4.07321 -2.74778 32.08568 3.86022 0.91289 -24.3452 -6.28883 3.20279 2.2839
0.00191 0.00057 0.00315 -176.57318 -31.1204 1.56102 45.14588 -1.66131 -9.26832 -13.03268 7.80399 -0.55924 -21.19662 -6.36543 -0.88748 30.38181 98.3693 9.38331 1.20566 -22.58869 6.33546 1.61414 32.73828 -127.63342 23.18742 -4.33502 28.35558 -3.09364 -5.48081 -20.02968 -6.13644 -4.11182 -2.773 32.23466 3.84338 1.02957 -24.33789 -6.29173 3.16643 2.26627
0.00224 0.00065 0.00324 -176.38913 -31.219 1.63348 45.05986 -1.5692 -9.24132 -12.68217 7.45203 -0.55989 -21.29981 -6.3772 -1.04797 30.48654 98.16671 9.30571 1.19066 -22.56278 6.7471 0.22202 32.71993 -121.99467 21.22663 -3.52846 28.48197 -3.07037 -5.03225 -20.02495 -6.1748 -4.17246 -2.80954 32.38997 3.84814 1.25804 -24.32857 -6.2935 3.11123 2.23937
0.00255 0.00072 0.00333 -176.21726 -31.31568 1.70162 44.98078 -1.48278 -9.21253 -12.35594 7.12464 -0.56051 -21.39526 -6.39447 -1.17791 30.58509 97.98951 9.23746 1.176 -22.54442 7.08255 -0.9051 32.72412 -117.53091 19.66068 -2.89407 28.60514 -3.05859 -4.66399 -20.02053 -6.20718 -4.22158 -2.84013 32.54121 3.84121 1.42252 -24.32028 -6.29599 3.0662 2.21742
0.0029 0.00081 0.00344 -176.06345 -31.42111 1.77102 44.88162 -1.39176 -9.20196 -11.99889 6.78245 -0.56114 -21.49512 -6.39025 -1.34607 30.69653 97.79744 9.15551 1.16105 -22.48618 7.415 -2.15117 32.60787 -112.32158 17.83657 -2.15324 28.7408 -3.04082 -4.22378 -20.01499 -6.24293 -4.27683 -2.87412 32.69897 3.84073 1.63892 -24.31153 -6.29769 3.0148 2.19255
0.00318 0.00088 0.00351 -175.8646 -31.50717 1.83923 44.82305 -1.30771 -9.15022 -11.69945 6.46232 -0.56176 -21.58806 -6.43118 -1.44825 30.78664 97.62259 9.09728 1.14619 -22.52038 7.8056 -3.28406 32.76558 -108.09917 16.35896 -1.55029 28.84938 -3.02928 -3.8982 -20.01175 -6.27445 -4.32474 -2.90376 32.843 3.83274 1.77378 -24.30319 -6.30073 2.97226 2.1716
0.00331 0.00092 0.0035 -175.53963 -31.54823 1.90771 44.87732 -1.24792 -9.00475 -11.54783 6.19668 -0.56228 -21.66725 -6.59142 -1.33319 30.78001 97.52569 9.12168 1.13516 -22.73161 8.224 -3.93125 33.49107 -107.34407 16.11066 -1.43865 28.89261 -3.04991 -3.94832 -20.01489 -6.29052 -4.34543 -2.91797 32.9599 3.79663 1.67533 -24.29721 -6.30779 2.95557 2.16199
0.00338 0.00095 0.00344 -175.17289 -31.56744 1.97352 44.97171 -1.19498 -8.81458 -11.45932 5.95837 -0.5628 -21.7369 -6.79834 -1.15387 30.76077 97.44253 9.16662 1.1234 -23.05248 8.71347 -4.45537 34.52842 -107.60928 16.21645 -1.46951 28.90596 -3.07587 -4.11511 -20.02032 -6.30208 -4.35813 -2.92748 33.05966 3.75325 1.48972 -24.29161 -6.31622 2.9487 2.15679
0.00346 0.00098 0.00338 -174.83193 -31.59193 2.03679 45.0492 -1.13738 -8.63255 -11.35579 5.71978 -0.56332 -21.80499 -6.98738 -1.02045 30.768 97.34265 9.19448 1.10998 -23.3716 9.23323 -5.07705 35.54448 -107.2445 16.08897 -1.4096 28.92749 -3.09297 -4.21077 -20.0247 -6.31638 -4.37572 -2.93968 33.16012 3.71417 1.33016 -24.28535 -6.32396 2.93968 2.15083
0.00358 0.00102 0.0034 -174.4598 -31.63903 2.11645 45.12484 -1.08629 -8.50157 -11.19387 5.42866 -0.56381 -21.89931 -7.16162 -0.82108 30.67802 97.292 9.25938 1.10579 -23.47907 9.49585 -5.55789 36.04706 -107.48376 16.23137 -1.444 28.97486 -3.13611 -4.37366 -20.02918 -6.32829 -4.38938 -2.95022 33.29392 3.66974 1.22509 -24.28097 -6.33189 2.92129 2.13984
0.00362 0.00105 0.00325 -174.14464 -31.63012 2.16094 45.20898 -1.023 -8.25392 -11.16826 5.25355 -0.56442 -21.93552 -7.37861 -0.73956 30.79982 97.1344 9.24615 1.08115 -24.06431 10.30681 -6.27416 37.69959 -106.76598 15.91888 -1.32585 28.95751 -3.12704 -4.43149 -20.03391 -6.3438 -4.40828 -2.96257 33.35012 3.63678 0.99261 -24.27291 -6.33984 2.92369 2.13983
0.00342 0.00103 0.00267 -173.98416 -31.50534 2.11132 45.35066 -0.92781 -7.69374 -11.51047 5.39694 -0.56484 -21.82081 -7.69477 -1.03103 31.40641 96.75248 9.06614 1.00959 -25.84391 12.63098 -7.86158 42.39377 -102.90194 14.16106 -0.70041 28.80286 -2.9684 -4.12376 -20.03963 -6.37176 -4.45003 -2.98451 33.23223 3.61666 0.35624 -24.25361 -6.34671 2.99268 2.17502
0.00315 0.00101 0.00192 -173.88469 -31.31981 2.02608 45.49241 -0.81961 -7.01845 -11.98633 5.65534 -0.56545 -21.64566 -8.05344 -1.43764 32.24753 96.25114 8.79841 0.91599 -28.11513 15.49972 -9.6536 48.2425 -98.1022 11.96596 0.07288 28.57904 -2.75792 -3.71503 -20.0454 -6.40319 -4.49614 -3.0078 33.03145 3.61156 -0.39394 -24.23077 -6.35369 3.08043 2.22018
0.00294 0.001 0.00123 -173.76633 -31.13871 1.95532 45.604 -0.71502 -6.39607 -12.39707 5.85833 -0.56633 -21.49447 -8.39789 -1.76976 33.0467 95.75301 8.53343 0.82597 -30.23036 18.10878 -11.22229 53.60372 -93.90189 10.02908 0.74272 28.36286 -2.57396 -3.38487 -20.0506 -6.43205 -4.53581 -3.02808 32.84321 3.61371 -1.04221 -24.21021 -6.36116 3.15175 2.25674
0.00264 0.00096 0.00058 -173.61061 -31.0501 1.89093 45.83977 -0.61995 -5.76752 -12.8296 6.07608 -0.56579 -21.3613 -8.72358 -2.19116 33.56547 95.46137 8.41915 0.76198 -32.08007 20.77583 -13.33094 58.82989 -88.98095 7.81163 1.55877 28.24076 -2.37761 -2.92359 -20.05813 -6.46491 -4.59362 -3.05809 32.75477 3.5584 -1.89816 -24.18686 -6.36642 3.25573 2.31008
0.00249 0.00097 -0.00018 -173.54594 -30.76049 1.80577 45.82193 -0.5024 -5.12771 -13.24625 6.28936 -0.56817 -21.17195 -9.09638 -2.45737 34.73301 94.72309 7.97827 0.63995 -34.57889 23.44558 -14.37306 64.59362 -85.35012 6.122 2.10981 27.91338 -2.19476 -2.70639 -20.06088 -6.49039 -4.61532 -3.06853 32.44614 3.62364 -2.35644 -24.16843 -6.37626 3.29734 2.33148
0.00278 0.00107 -0.00118 -173.73355 -29.88075 1.66404 45.05528 -0.32129 -4.46257 -13.59796 6.46806 -0.57918 -20.87816 -9.60033 -2.24377 37.55903 92.67638 6.58332 0.35071 -38.90875 26.04328 -12.37144 71.67401 -85.27642 5.50751 1.87154 26.97797 -2.06129 -3.21798 -20.04964 -6.49419 -4.5315 -3.02192 31.48814 4.04243 -1.61008 -24.16489 -6.399 3.15045 2.25614
0.00323 0.0012 -0.00228 -174.00782 -28.80998 1.50416 44.04179 -0.1188 -3.7946 -13.92629 6.63714 -0.593 -20.52211 -10.14717 -1.87397 41.04371 90.20293 4.87534 0.00599 -43.84043 28.62303 -9.31366 79.23043 -86.55473 5.49704 1.3667 25.84905 -1.94331 -3.97256 -20.03374 -6.49057 -4.41212 -2.95611 30.32269 4.57766 -0.4731 -24.16636 -6.42627 2.94215 2.14938
